<svg width="18" height="18" viewBox="0 0 18 18" xmlns="http://www.w3.org/2000/svg"><title>icon-instagram</title><path d="M5.29.055C4.33.098 3.676.25 3.104.473A4.416 4.416 0 0 0 1.51 1.51c-.5.5-.809 1.001-1.038 1.594C.25 3.677.098 4.33.055 5.29.01 6.25 0 6.556 0 9s.01 2.75.055 3.71c.043.959.195 1.613.418 2.185A4.4 4.4 0 0 0 1.51 16.49c.5.5 1.001.808 1.594 1.038.573.223 1.226.375 2.184.418C6.25 17.99 6.556 18 9 18c2.445 0 2.75-.01 3.71-.055.959-.043 1.613-.195 2.185-.418a4.426 4.426 0 0 0 1.594-1.038c.5-.5.808-1.002 1.038-1.594.223-.572.376-1.226.418-2.184C17.99 11.75 18 11.444 18 9s-.01-2.75-.054-3.71c-.043-.959-.195-1.613-.418-2.185A4.426 4.426 0 0 0 16.49 1.51c-.5-.5-1.002-.809-1.593-1.038C14.323.25 13.669.097 12.71.055 11.751.01 11.445 0 9.001 0 6.556 0 6.25.01 5.289.055m.075 16.27c-.878-.04-1.355-.185-1.672-.309a2.8 2.8 0 0 1-1.035-.673 2.782 2.782 0 0 1-.673-1.035c-.124-.317-.27-.793-.31-1.67-.043-.95-.052-1.235-.052-3.638 0-2.403.01-2.688.052-3.637.04-.878.187-1.354.31-1.671a2.8 2.8 0 0 1 .673-1.036c.315-.314.614-.51 1.035-.673.317-.123.794-.27 1.672-.31.948-.043 1.233-.052 3.636-.052s2.688.01 3.637.053c.878.04 1.354.186 1.671.31.42.162.72.358 1.036.672.314.315.51.615.673 1.036.123.317.27.793.31 1.67.043.95.052 1.235.052 3.638 0 2.403-.009 2.688-.053 3.637-.04.878-.186 1.354-.31 1.671a2.79 2.79 0 0 1-.672 1.035c-.315.315-.615.51-1.036.673-.317.124-.793.27-1.67.31-.95.043-1.235.052-3.638.052-2.403 0-2.688-.009-3.636-.052m7.36-12.13a1.08 1.08 0 1 0 2.161-.001 1.08 1.08 0 0 0-2.16 0M4.378 9a4.621 4.621 0 1 0 9.242 0A4.621 4.621 0 0 0 4.38 9M6 9a3 3 0 1 1 6 0 3 3 0 0 1-6 0" fill="#EF9597" fill-rule="evenodd"/></svg>