<svg width="80" height="54" viewBox="0 0 80 54" xmlns="http://www.w3.org/2000/svg"><title>logo</title><path d="M35.084 7.553c.232-.377.623.286 1.065.286.443 0 .443-.163.885-.163.444 0 .444-.071.888-.071.443 0 .443.235.888.235.443 0 .443-.148.887-.148s.444-.018.888-.018c.445 0 .445.052.888.052.445 0 .445-.159.889-.159.446 0 .446-.078.892-.078.445 0 .596-.166.834.21.233.37-.067.391-.268.778-.201.385-.4.281-.601.667-.202.385.12.553-.08.938-.203.387-.245.365-.447.751-.202.387-.345.311-.547.697-.202.387-.031.476-.233.862-.202.385-.545.206-.746.591-.202.386-.127.426-.33.812-.202.388-.111.435-.314.822-.203.39-.195.393-.398.782-.203.388.019.647-.42.65-.435.002-.184-.276-.386-.662-.2-.385-.055-.461-.256-.847-.201-.385-.173-.4-.374-.785-.203-.386-.255-.359-.456-.746-.203-.385-.496-.233-.698-.618-.201-.387-.246-.363-.448-.75-.201-.385.024-.502-.176-.887-.202-.387-.227-.374-.43-.761-.201-.388-.168-.405-.37-.792-.204-.389-.104-.474-.406-.792-.397-.42-.85-.483-.62-.856m4.436 24.454c.209-.396.549-.217.756-.614.209-.397.064-.472.271-.869.209-.398.145-.432.353-.83.208-.397.416-.288.624-.686.208-.398.077-.466.284-.865.208-.396.192-.403.4-.8.207-.399.254-.374.462-.773.208-.399.068-.473.276-.871.209-.4.14-.436.349-.837.209-.4.427-.287.633-.689.002-.004-.145-.075-.143-.078.197-.386.4-.282.601-.665.2-.385-.121-.553.08-.937.2-.384.242-.362.442-.746.201-.384.344-.308.545-.692.2-.383.03-.472.23-.855.2-.384.544-.204.744-.587.2-.384.125-.423.326-.807.2-.384.11-.43.311-.815.2-.384.192-.389.393-.774.2-.383.321-.32.522-.704.2-.385.111-.43.311-.815.201-.384.347-.308.547-.692.2-.384.23-.37.43-.754.201-.384.148-.412.349-.796.2-.385-.093-.538.107-.922.201-.385.156-.409.357-.793.201-.385.427-.266.628-.651.2-.384.175-.397.375-.78s.234-.366.433-.748c.201-.384.21-.38.409-.764.2-.385.26-.354.461-.74.2-.383.065-.455.266-.839.2-.384.237-.365.438-.75s.012-.484.214-.87c.2-.385.314-.326.515-.71.202-.386.215-.38.416-.764.2-.384.09-.442.29-.826.202-.387.462-.25.664-.637.202-.386.141-.418.342-.804.203-.388.167-.407.37-.794.202-.388.596-.373.378-.752-.212-.368-.39-.129-.816-.129-.424 0-.424-.128-.848-.128s-.424.061-.85.061c-.423 0-.423.14-.847.14s-.424-.068-.847-.068c-.425 0-.425.091-.849.091s-.424-.155-.848-.155c-.425 0-.425.018-.85.018s-.425.308-.85.308c-.427 0-.427-.194-.853-.194-.425 0-.425.235-.851.235-.425 0-.425-.03-.85-.03s-.425-.118-.85-.118-.425-.103-.85-.103-.425-.105-.85-.105c-.426 0-.426.092-.852.092s-.426.171-.853.171c-.425 0-.425-.311-.851-.311s-.426.231-.851.231-.425-.214-.851-.214-.426.189-.853.189c-.426 0-.426.228-.852.228s-.426-.233-.852-.233-.426-.176-.853-.176c-.426 0-.426.217-.853.217-.426 0-.426.04-.852.04-.424 0-.424-.113-.849-.113s-.425-.024-.85-.024c-.426 0-.426.086-.854.086-.425 0-.425-.21-.851-.21s-.426.416-.852.416c-.428 0-.428-.468-.855-.468s-.427.007-.854.007c-.428 0-.428.293-.854.293-.429 0-.429-.264-.856-.264-.428 0-.428-.023-.854-.023-.429 0-.429.095-.856.095-.43 0-.43.21-.857.21-.43 0-.665-.465-.883-.096-.222.372.138.444.338.827.201.385.16.406.362.79.2.384.492.232.693.616.2.383.125.422.326.806.2.383-.031.503.168.887.2.382.34.31.541.693.2.384.029.473.229.857s.394.283.595.667c.2.385.328.318.529.703.2.384.063.456.264.84.2.384.036.469.236.853.2.384.467.245.667.63.201.384.18.394.38.78.202.383.145.414.345.798.201.385.184.393.385.777.201.385.018.48.219.864.201.385.393.285.594.67.2.383.151.409.351.792.2.383.388.285.587.669.2.382.096.438.295.821.202.385.029.475.23.86.2.385.456.252.656.636.201.385.156.409.357.793.2.386.014.484.215.87.201.384.266.35.467.735.201.386.192.391.393.777.2.383.062.456.263.84.2.386.4.282.601.668.202.387.085.447.287.835.202.387.403.281.606.67.202.387.207.395.207.832 0 .437-.313.283-.516.671-.202.387-.088.446-.29.833-.202.387.07.529-.132.916-.203.388-.464.251-.667.64-.2.386-.12.428-.32.814-.202.385-.225.374-.426.76-.2.386-.352.307-.553.693-.203.388.163.579-.04.967-.202.387-.36.304-.562.691-.202.387-.41.28-.612.667-.202.388.081.536-.121.924s-.236.37-.439.758c-.202.39-.33.322-.533.71-.203.386-.35.31-.55.697-.204.388-.155.414-.359.802-.203.39-.245.367-.45.756-.203.39-.126.43-.33.82-.204.39.147 1.042-.293 1.055-.425.015-.108-.645-.305-1.022-.197-.378-.23-.361-.427-.739-.197-.378-.132-.412-.329-.79-.196-.375-.227-.359-.423-.734-.196-.376-.129-.41-.326-.786-.195-.376-.543-.194-.738-.57-.197-.377-.215-.367-.411-.743-.197-.377-.047-.455-.244-.832-.197-.377-.254-.347-.45-.724-.198-.379-.091-.434-.29-.812-.196-.377-.13-.412-.328-.79-.197-.377-.126-.414-.323-.792-.197-.377-.345-.3-.54-.677-.198-.376-.328-.308-.525-.685-.196-.377-.041-.458-.238-.834-.197-.377-.322-.31-.518-.688-.197-.377.064-.513-.132-.89-.198-.376-.247-.35-.444-.727-.197-.378-.181-.386-.378-.763-.197-.378-.19-.382-.386-.76-.198-.378-.125-.417-.323-.795-.197-.378-.394-.276-.59-.653-.199-.378-.039-.461-.236-.84-.197-.377-.483-.227-.68-.605-.197-.377-.131-.412-.329-.788-.197-.379-.333-.307-.53-.685-.198-.379-.096-.432-.293-.81-.198-.378-.014-.474-.212-.853-.198-.378-.09-.434-.288-.812-.198-.378-.304-.323-.502-.7-.196-.379-.158-.398-.356-.776-.198-.379-.245-.354-.442-.733-.198-.379-.286-.333-.483-.712-.198-.377-.038-.461-.235-.84-.197-.378-.555-.192-.753-.57-.198-.38-.048-.458-.246-.836-.197-.378-.184-.384-.381-.762-.197-.377.054-.508-.142-.885-.198-.378-.244-.354-.44-.731-.198-.38-.218-.37-.417-.749-.196-.378-.16-.398-.357-.776-.197-.379-.23-.362-.428-.74-.198-.38-.234-.361-.433-.74-.197-.38-.143-.409-.34-.788-.2-.38-.351-.3-.549-.68-.198-.377-.134-.41-.332-.789-.198-.38-.422-.263-.62-.643-.2-.38.082-.527-.117-.907-.2-.382-.418-.268-.617-.65-.2-.382.073-.61-.293-.838-.35-.219-.43.166-.844.166-.413 0-.413-.237-.827-.237s-.414-.055-.83-.055c-.414 0-.414.305-.827.305-.416 0-.416-.157-.83-.157-.415 0-.415.02-.83.02s-.415-.211-.83-.211-.415.107-.83.107c-.416 0-.416-.106-.833-.106C.65.096.26-.172.051.188c-.213.37.294.527.49.905.198.379.352.298.549.677.198.378.278.335.476.714.197.377.084.436.282.814.196.377.154.4.351.777.197.377.231.36.429.737.196.378.374.285.571.663.197.377.172.39.37.767.196.378.166.393.363.771.197.378.229.36.425.739.198.378-.052.507.145.885.197.377.316.316.512.694.198.378.035.463.233.841.197.379.307.322.504.7.197.378.021.47.219.849.197.377.541.198.738.576.197.378.163.397.36.774.197.378.074.442.271.82.197.378.314.317.51.695.197.378.263.344.46.722.196.378-.09.527.107.905.196.378.36.293.557.67.198.379-.014.49.183.868.197.379.544.198.74.577.197.376.071.442.267.818.196.375.2.374.396.75.197.376.137.407.333.784.197.376.289.328.485.705.197.377.217.367.414.744.197.378-.044.503.154.88.197.38.438.254.635.633.198.378.003.48.2.859.197.377.17.392.367.77.197.378.174.39.371.767s.34.303.537.68c.197.377.21.37.406.748.198.377.029.464.226.842.197.377.133.41.33.787.197.378.245.352.442.73s.18.387.376.765c.198.379.426.26.624.639.197.379.046.458.244.837.197.378.4.273.597.652.197.378.047.456.244.834.197.378.377.285.574.663.197.378-.109.538.088.915.197.379.45.247.648.626.198.378.2.376.399.756.197.379-.093.53.104.91.198.378.53.205.728.583.197.38.037.463.234.842.197.378.152.402.348.781.2.38.174.392.372.772.198.379.491.225.69.605.197.379-.075.52.122.9.198.379.463.24.662.62.197.38.21.373.407.753.198.377.016.472.212.85.198.378.265.343.462.72.197.38.277.338.475.716.198.38-.04.504.157.884.198.379.24.357.438.735.198.38.131.415.328.794.2.38.323.316.521.696.198.38.226.365.424.745.199.38.236.361.434.741s.002.48.2.86.13.416.329.797c.198.38.367.293.565.674.2.382.065.453.265.835.199.383.096.67.528.675.426.005.146-.381.344-.759.196-.376.409-.265.606-.642s.076-.44.273-.817c.197-.376.316-.314.512-.691.197-.377-.148-.557.05-.934.196-.378.454-.243.651-.62.197-.378-.007-.485.19-.863.197-.377.505-.217.702-.594.197-.378.124-.416.32-.794.198-.377-.1-.532.096-.91.197-.377.47-.236.666-.614.198-.378.118-.42.316-.797.197-.378.168-.393.365-.77.197-.378.028-.467.225-.845.197-.378.371-.287.57-.665.196-.377.282-.332.479-.709.196-.376.2-.374.397-.75.197-.377-.016-.489.18-.866.198-.378.33-.309.529-.688.196-.377.023-.468.22-.846.198-.377.484-.228.681-.606.198-.38-.103-.536.095-.915s.293-.329.49-.707c.198-.38.125-.417.323-.796.197-.377.347-.3.544-.676.198-.38.311-.32.51-.7.198-.38.091-.436.29-.816.199-.38.264-.347.462-.728.2-.38.13-.395.234-.813.025-.1-.06-.06-.058-.062M70.99.473c-.362.223-.463.116-.66.493-.197.378-.053.453-.25.83-.198.38-.134.412-.331.79-.196.375-.405.266-.6.642-.196.375-.065.444-.261.82-.197.376-.18.384-.377.76-.196.375-.243.351-.439.727-.196.377-.055.45-.252.827-.197.378-.128.414-.324.79-.198.379-.413.266-.61.644s-.06.45-.256.828c-.199.378-.397.274-.595.651-.195.378.126.545-.07.923-.198.376-.24.354-.436.731-.197.376-.34.302-.537.678-.197.376-.026.465-.223.842-.196.376-.54.197-.737.574-.196.376-.122.416-.318.793-.198.377-.108.424-.304.801-.198.378-.19.383-.387.76-.197.379-.318.317-.516.695-.197.378-.107.424-.305.802-.197.378-.342.302-.54.68-.196.377-.225.362-.422.74-.197.377-.144.405-.341.782-.197.377.096.53-.1.908-.199.379-.153.402-.35.78-.199.379-.424.261-.623.64-.197.378-.171.391-.369.77-.197.377-.23.36-.427.738-.198.378-.206.374-.403.752-.198.379-.257.348-.454.726-.198.38-.062.45-.26.829-.197.378-.234.36-.432.737-.197.379-.008.478-.206.857-.197.378-.311.319-.508.698-.198.378-.212.37-.409.748-.196.377-.085.435-.282.811-.197.378-.457.242-.655.62-.197.38-.136.411-.335.79-.197.38-.162.398-.358.777-.198.378-.172.392-.37.77-.197.38-.329.311-.527.691-.198.38-.312.32-.51.7-.198.378-.143.407-.342.787-.197.378-.073.442-.271.82-.198.38-.258.348-.457.729-.199.38-.118.423-.316.804-.2.38-.336.31-.536.691-.199.382.176.677-.254.692-.416.015-.327-.146-.52-.514-.192-.37-.021-.46-.214-.83-.193-.369-.4-.26-.594-.63-.193-.37-.166-.383-.36-.752-.193-.37-.088-.424-.282-.795-.192-.37-.1-.418-.294-.788-.193-.37-.1-.418-.294-.789-.192-.369-.274-.326-.467-.695-.193-.37-.344-.292-.537-.663-.195-.37.081-.515-.113-.886-.194-.372-.4-.266-.593-.637-.195-.373.041-.97-.378-.944-.447.027-.195.584-.404.98-.206.397-.004.503-.212.9-.208.398-.415.29-.623.688-.207.397-.362.316-.57.714-.209.398-.016.499-.224.897-.206.396-.172.414-.38.81-.208.399-.307.347-.515.746-.209.398-.231.387-.44.786-.209.4-.133.44-.342.84-.209.4-.619.335-.625.786-.004.431.59.277.79.66.2.382-.215.599-.016.98.2.383.205.38.404.762.2.383.462.247.661.63.2.382-.035.505.165.888.2.382.18.393.379.775.2.383.284.339.484.722.2.383.387.285.587.669.199.38.101.432.3.813.2.382.139.414.337.795.2.381.16.403.359.784.2.383.492.231.692.615.2.383.125.421.325.804.2.383-.03.503.169.885.2.385.34.312.54.696.2.383.029.472.23.856.2.383.393.283.594.666.2.382.327.316.526.698.201.384.063.456.264.84.201.385.037.47.238.855.2.386.467.248.669.633.201.386-.144.718.29.726.428.008.16-.292.359-.67.197-.378.213-.37.41-.747.198-.379.38-.283.577-.661.198-.378.005-.479.201-.857.198-.377.247-.35.445-.729.195-.378.01-.475.206-.853.197-.377.301-.323.499-.7.196-.378.37-.287.566-.665.197-.378-.058-.51.14-.887.196-.379.242-.355.439-.732.197-.378.384-.28.58-.658.198-.378.133-.412.33-.79.198-.378.207-.373.405-.751.197-.378.335-.306.532-.684.198-.379 0-.482.197-.86.197-.379.314-.318.51-.696.199-.378-.003-.483.194-.86.197-.378.385-.281.582-.659.197-.378.319-.314.516-.692.197-.378.083-.437.28-.815.197-.377-.074-.52.123-.898.196-.377.458-.241.655-.619.198-.378.115-.42.313-.8.197-.378.22-.366.417-.745.196-.376.347-.297.543-.673.196-.376-.17-.567.026-.943.197-.376.355-.294.551-.67.197-.377.404-.269.601-.646.196-.377-.088-.525.109-.903.198-.377.23-.36.427-.738.198-.379.326-.311.524-.69.197-.379.344-.302.542-.68.197-.379.149-.404.346-.782.197-.378.24-.355.436-.733.198-.377.12-.417.318-.794.196-.377-.105-.534.092-.911.196-.378.487-.227.683-.604.197-.377.164-.394.362-.771.196-.378.261-.344.458-.722.197-.377.166-.393.364-.772.197-.378.264-.343.46-.721.199-.38-.149-.561.05-.94.196-.379.179-.388.376-.767.198-.378.347-.3.545-.678.196-.378.14-.408.337-.786.198-.377.304-.322.5-.7.198-.379.263-.345.46-.723.198-.38.27-.342.468-.72.197-.38.05-.457.247-.836.198-.38.067-.447.265-.826.197-.379.352-.298.55-.676.197-.379.071-.444.27-.823.196-.38.458-.243.656-.623.198-.379.148-.405.346-.784.197-.38.214-.37.411-.75.198-.379.206-.375.403-.754.199-.38.271-.342.47-.721.196-.378 0-.48.196-.859.198-.378.358-.294.554-.672.198-.378-.089-.527.11-.906.197-.38.262-.345.46-.725s.062-.45.26-.83c.198-.378.3-.326.497-.705.199-.38.382-.285.58-.665.199-.38.305-.324.504-.703.198-.38.092-.437.289-.817.198-.379.237-.358.433-.737.2-.38.152-.406.35-.786.2-.382.111-.428.31-.808.2-.383.36-.299.56-.682.2-.382.255-.351.045-.726-.203-.361-.209-.049-.622-.049-.413 0-.413-.014-.828-.014-.414 0-.414-.284-.828-.284-.415 0-.415.052-.83.052-.414 0-.414.023-.829.023s-.415-.043-.83-.043c-.414 0-.414.037-.83.037-.414 0-.414.042-.83.042s-.41-.049-.827-.062c-.377-.012-.372.144-.727.363" fill="#FFF" fill-rule="evenodd"/></svg>