<svg width="18" height="14" viewBox="0 0 18 14" xmlns="http://www.w3.org/2000/svg"><title>icon-twitter</title><path d="M17.702 1.656a6.924 6.924 0 0 1-2.03.555A3.532 3.532 0 0 0 17.23.258c-.687.403-1.443.7-2.25.857A3.526 3.526 0 0 0 12.4 0a3.533 3.533 0 0 0-3.442 4.34A10.067 10.067 0 0 1 1.667.648a3.531 3.531 0 0 0 1.096 4.717 3.536 3.536 0 0 1-1.6-.441v.044a3.534 3.534 0 0 0 2.836 3.464 3.51 3.51 0 0 1-1.601.063A3.545 3.545 0 0 0 5.7 10.952a7.118 7.118 0 0 1-5.238 1.461A10.017 10.017 0 0 0 5.883 14c6.505 0 10.06-5.385 10.06-10.051 0-.151-.006-.309-.012-.46a7.198 7.198 0 0 0 1.77-1.833z" fill="#EFF09C" fill-rule="evenodd"/></svg>