<?xml version="1.0" encoding="UTF-8" standalone="no"?>
<svg width="18px" height="18px" viewBox="0 0 18 18" version="1.1" xmlns="http://www.w3.org/2000/svg" xmlns:xlink="http://www.w3.org/1999/xlink">
    <!-- Generator: Sketch 41 (35326) - http://www.bohemiancoding.com/sketch -->
    <title>icon-facebook</title>
    <desc>Created with Sketch.</desc>
    <defs></defs>
    <g id="Page-1" stroke="none" stroke-width="1" fill="none" fill-rule="evenodd">
        <g id="Desktop-HD-Copy" transform="translate(-1296.000000, -41.000000)" fill="#8B8AD0">
            <g id="Page-1" transform="translate(1296.000000, 41.000000)">
                <path d="M9.61314607,17.9858847 L0.99097618,17.9858847 C0.44492818,17.9858847 0,17.540956 0,16.9949083 L0,0.990977528 C0,0.444930337 0.44492818,0 0.99097618,0 L17.0016472,0 C17.5477011,0 17.9926247,0.444930337 17.9926247,0.990977528 L17.9926247,17.0016499 C17.9926247,17.5476978 17.5477011,17.9926264 17.0016472,17.9926264 L17.0016472,17.9858847 L12.4175393,17.9858847 L12.4175393,11.0220876 L14.7567843,11.0220876 L15.1073326,8.30532809 L12.4175393,8.30532809 L12.4175393,6.57280449 C12.4175393,5.78406742 12.6332629,5.25150337 13.7658067,5.25150337 L15.2017146,5.25150337 L15.2017146,2.82461798 C14.9522831,2.79091011 14.0961371,2.71675955 13.1051596,2.71675955 C11.0288225,2.71675955 9.61314607,3.98412809 9.61314607,6.30314831 L9.61314607,8.30532809 L7.26715955,8.30532809 L7.26715955,11.0220876 L9.61314607,11.0220876 L9.61314607,17.9858847 Z" id="icon-facebook"></path>
            </g>
        </g>
    </g>
</svg>