<?xml version="1.0" encoding="UTF-8" standalone="no"?>
<svg width="18px" height="18px" viewBox="0 0 18 18" version="1.1" xmlns="http://www.w3.org/2000/svg" xmlns:xlink="http://www.w3.org/1999/xlink">
    <!-- Generator: Sketch 41 (35326) - http://www.bohemiancoding.com/sketch -->
    <title>icon-instagram</title>
    <desc>Created with Sketch.</desc>
    <defs></defs>
    <g id="Page-1" stroke="none" stroke-width="1" fill="none" fill-rule="evenodd">
        <g id="Desktop-HD-Copy" transform="translate(-1368.000000, -41.000000)" fill="#EF9597">
            <path d="M1373.28949,41.0545256 C1372.33134,41.0981432 1371.67706,41.2500848 1371.10493,41.472536 C1370.51316,41.7022592 1370.01154,42.0104984 1369.51066,42.510668 C1369.0105,43.0108232 1368.70226,43.51244 1368.47254,44.104928 C1368.25008,44.6770616 1368.09814,45.3313472 1368.05452,46.2895016 C1368.01017,47.2491104 1368,47.5558952 1368,50 C1368,52.4441048 1368.01017,52.7508896 1368.05452,53.7105056 C1368.09814,54.66866 1368.25008,55.3229384 1368.47254,55.895072 C1368.70226,56.4868328 1369.00977,56.9891768 1369.51066,57.4893392 C1370.01082,57.9895016 1370.51244,58.2970136 1371.10493,58.527464 C1371.67778,58.7499224 1372.33134,58.9018568 1373.28949,58.9454744 C1374.24984,58.9890992 1374.5559,59 1377,59 C1379.44482,59 1379.75088,58.9898264 1380.7105,58.9454744 C1381.66865,58.9018568 1382.32294,58.7499224 1382.89506,58.527464 C1383.48683,58.2970136 1383.98845,57.9895016 1384.48933,57.4893392 C1384.98949,56.9891768 1385.29701,56.4868328 1385.52746,55.895072 C1385.74992,55.3229384 1385.90258,54.66866 1385.94547,53.7105056 C1385.98909,52.7501624 1385.99927,52.4441048 1385.99927,50 C1385.99927,47.5558952 1385.98909,47.2491104 1385.94547,46.2895016 C1385.90186,45.3313472 1385.74992,44.6770616 1385.52746,44.104928 C1385.29701,43.5131672 1384.98949,43.0115504 1384.48933,42.5106608 C1383.98917,42.0104984 1383.48683,41.7022592 1382.8958,41.472536 C1382.32294,41.2500848 1381.66865,41.097416 1380.71123,41.0545256 C1379.75162,41.010908 1379.44482,41 1377.00072,41 C1374.5559,41 1374.24984,41.0101808 1373.28949,41.0545256 M1373.36365,57.3257696 C1372.48618,57.2857808 1372.00928,57.1396568 1371.69233,57.0160688 C1371.27213,56.8525064 1370.97261,56.6576744 1370.65711,56.3428904 C1370.34233,56.0281136 1370.14677,55.7285936 1369.98392,55.3084016 C1369.86034,54.991436 1369.71422,54.514544 1369.67423,53.63708 C1369.63061,52.6883648 1369.62189,52.403396 1369.62189,50 C1369.62189,47.5966112 1369.63134,47.3123552 1369.67423,46.3629272 C1369.71422,45.4854632 1369.86106,45.0092912 1369.98392,44.6915984 C1370.14749,44.2714064 1370.34233,43.9718864 1370.65711,43.6563824 C1370.97189,43.3415984 1371.27141,43.1460392 1371.69233,42.9831968 C1372.00928,42.859616 1372.48618,42.713492 1373.36365,42.6735032 C1374.31236,42.6298856 1374.59734,42.6211592 1377,42.6211592 C1379.40339,42.6211592 1379.68764,42.6306128 1380.63707,42.6735032 C1381.51454,42.713492 1381.99071,42.8603432 1382.3084,42.9831968 C1382.72859,43.1460392 1383.02811,43.3415984 1383.34362,43.6563824 C1383.6584,43.9711592 1383.85323,44.2714064 1384.0168,44.6915984 C1384.14038,45.008564 1384.28651,45.4854632 1384.3265,46.3629272 C1384.37011,47.3123552 1384.37884,47.5966112 1384.37884,50 C1384.37884,52.4026616 1384.37011,52.6876376 1384.3265,53.63708 C1384.28651,54.514544 1384.13966,54.991436 1384.0168,55.3084016 C1383.85323,55.7285936 1383.6584,56.0281136 1383.34362,56.3428904 C1383.02884,56.6576744 1382.72859,56.8525064 1382.3084,57.0160688 C1381.99144,57.1396568 1381.51454,57.2857808 1380.63707,57.3257696 C1379.68836,57.3693872 1379.40339,57.3781136 1377,57.3781136 C1374.59734,57.3781136 1374.31236,57.3693872 1373.36365,57.3257696 M1380.72431,45.1953968 C1380.72431,45.7915208 1381.20775,46.275692 1381.8046,46.275692 C1382.40072,46.275692 1382.88489,45.7915208 1382.88489,45.1953968 C1382.88489,44.5992728 1382.40145,44.115836 1381.8046,44.115836 C1381.20775,44.115836 1380.72431,44.5992728 1380.72431,45.1953968 M1372.37859,50 C1372.37859,52.5524216 1374.44758,54.6214064 1377,54.6214064 C1379.55242,54.6214064 1381.6214,52.5524216 1381.6214,50 C1381.6214,47.4475784 1379.55242,45.3786008 1377,45.3786008 C1374.44758,45.3786008 1372.37859,47.4475784 1372.37859,50 M1374.00048,50 C1374.00048,48.3432152 1375.34321,46.99976 1377,46.99976 C1378.65678,46.99976 1380.00024,48.3432152 1380.00024,50 C1380.00024,51.656792 1378.65678,53.00024 1377,53.00024 C1375.34321,53.00024 1374.00048,51.656792 1374.00048,50" id="icon-instagram"></path>
        </g>
    </g>
</svg>