<?xml version="1.0" encoding="UTF-8" standalone="no"?>
<svg width="80px" height="54px" viewBox="0 0 80 54" version="1.1" xmlns="http://www.w3.org/2000/svg" xmlns:xlink="http://www.w3.org/1999/xlink">
    <!-- Generator: Sketch 41 (35326) - http://www.bohemiancoding.com/sketch -->
    <title>logo</title>
    <desc>Created with Sketch.</desc>
    <defs></defs>
    <g id="Page-1" stroke="none" stroke-width="1" fill="none" fill-rule="evenodd">
        <g id="Desktop-HD-Copy" transform="translate(-680.000000, -58.000000)" fill="#FFFFFF">
            <g id="logo" transform="translate(680.000000, 58.000000)">
                <path d="M35.083962,7.552835 C35.3156264,7.17592287 35.7066058,7.83917134 36.1487414,7.83917134 C36.5916077,7.83917134 36.5916077,7.67628102 37.0344741,7.67628102 C37.4780712,7.67628102 37.4780712,7.60469694 37.9223992,7.60469694 C38.3652655,7.60469694 38.3652655,7.83990179 38.8095935,7.83990179 C39.2531906,7.83990179 39.2531906,7.69162047 39.6967878,7.69162047 C40.1411157,7.69162047 40.1411157,7.67408967 40.5854437,7.67408967 C41.0297716,7.67408967 41.0297716,7.72595161 41.4733688,7.72595161 C41.9184275,7.72595161 41.9184275,7.56744399 42.3620247,7.56744399 C42.8078143,7.56744399 42.8078143,7.48928586 43.2536038,7.48928586 C43.6993934,7.48928586 43.8499387,7.32347374 44.0881803,7.69965542 C44.3213064,8.06853259 44.0209465,8.09044609 43.8199758,8.47685406 C43.6190051,8.86180113 43.419496,8.75807726 43.2185253,9.14375478 C43.0168238,9.5294323 43.3391077,9.69670532 43.138137,10.0823828 C42.9357047,10.4687908 42.894049,10.4468773 42.6916167,10.8332853 C42.4899151,11.2196933 42.3466778,11.1444569 42.1449763,11.5301344 C41.9432748,11.9172729 42.1135518,12.0056573 41.9118503,12.3920653 C41.7101488,12.7770123 41.3674024,12.5980521 41.1657009,12.9829992 C40.9639994,13.3694072 41.0385413,13.4088515 40.8368398,13.7952594 C40.6344075,14.1831283 40.725027,14.2298771 40.5218639,14.6170155 C40.3194316,15.0063453 40.3274704,15.0099975 40.1243073,15.3985969 C39.9211442,15.7871962 40.1425773,16.0457754 39.703365,16.0486972 C39.2685375,16.0508886 39.5199336,15.7733176 39.318232,15.3869097 C39.1172613,15.0019626 39.2626911,14.9259958 39.0617204,14.5403183 C38.8607496,14.1553712 38.8885201,14.1407622 38.6875494,13.7550847 C38.4851171,13.3686767 38.4332302,13.3964338 38.2315286,13.0092954 C38.0290963,12.6236179 37.7360445,12.7762819 37.534343,12.3906044 C37.3326415,12.0041964 37.2880625,12.0275708 37.0856302,11.6411628 C36.8846595,11.2562158 37.1104775,11.1386133 36.9095068,10.7536663 C36.7078053,10.3665278 36.682958,10.3796759 36.4805257,9.99253751 C36.2788242,9.60539909 36.3117103,9.58786829 36.109278,9.20072987 C35.9061149,8.81213054 36.0055041,8.72739836 35.7044134,8.40892223 C35.3068568,7.98891356 34.8537592,7.92609487 35.083962,7.552835 M39.5199336,32.0068352 C39.7289431,31.6109314 40.0687663,31.7898916 40.2763142,31.3925269 C40.4845929,30.9958926 40.339894,30.9206562 40.5474419,30.524022 C40.7557207,30.1259268 40.6921409,30.0923261 40.8996888,29.6942309 C41.1079675,29.2968662 41.3155154,29.4057033 41.5237942,29.0083385 C41.7320729,28.6102434 41.6005284,28.5415811 41.8080764,28.1434859 C42.0156243,27.7468516 42.0002774,27.7395471 42.2070946,27.3429129 C42.4153733,26.9440872 42.4621446,26.9689225 42.6696926,26.5700969 C42.8779713,26.1712713 42.7376572,26.0974959 42.9459359,25.6986702 C43.1549455,25.2983837 43.0855192,25.2625917 43.2945288,24.8623052 C43.5035383,24.4620186 43.7220483,24.5752384 43.9281346,24.173491 C43.9295962,24.1691083 43.7827049,24.0982546 43.7848973,24.0946024 C43.982214,23.7089248 44.1853771,23.8133792 44.3863478,23.429893 C44.5865877,23.0449459 44.2650346,22.8769425 44.4652745,22.4927258 C44.6655144,22.1092397 44.7079009,22.1311532 44.9081408,21.7469365 C45.1091115,21.3634504 45.2523488,21.4386867 45.4525887,21.0552005 C45.6528286,20.6717144 45.4825516,20.5833299 45.6827915,20.1998438 C45.8823006,19.8163576 46.2265086,19.9960482 46.4267485,19.6125621 C46.6269884,19.2290759 46.5517158,19.1903621 46.7526865,18.8061454 C46.9529264,18.4219288 46.8630376,18.37518 47.0640083,17.9909634 C47.2642483,17.6067468 47.2562094,17.6023641 47.4571801,17.217417 C47.65742,16.8339308 47.7780024,16.8967495 47.9789732,16.5125329 C48.1792131,16.1283163 48.0900551,16.0822979 48.290295,15.6980813 C48.4912657,15.3138647 48.6366955,15.3898315 48.8369354,15.0063453 C49.0379061,14.6221287 49.0664074,14.6367377 49.2666473,14.2517906 C49.4683488,13.867574 49.4150002,13.8398169 49.6159709,13.4556003 C49.8162108,13.0713836 49.523159,12.9179892 49.7233989,12.5337725 C49.9243696,12.1488255 49.8790598,12.1254511 50.0800305,11.7412345 C50.2810012,11.3562874 50.5068192,11.4746203 50.7077899,11.0896732 C50.9080298,10.706187 50.8831825,10.6930389 51.0834224,10.3095527 C51.2829315,9.92679702 51.3165484,9.94432782 51.5160575,9.56157209 C51.7170282,9.17808592 51.7250671,9.18173817 51.9245762,8.798252 C52.1255469,8.41330492 52.1847419,8.44398382 52.3864434,8.0583063 C52.5866833,7.67482012 52.4514848,7.60323604 52.6517247,7.21901941 C52.8519646,6.83480279 52.8892355,6.85379449 53.0902062,6.46957787 C53.2911769,6.08390034 53.1018991,5.98528961 53.3036006,5.59888164 C53.5038405,5.21393457 53.6178457,5.27310101 53.8188164,4.88888438 C54.0205179,4.50320686 54.0344031,4.50978091 54.2353738,4.12483384 C54.4356137,3.74061721 54.3245318,3.68291168 54.5255025,3.29869505 C54.727204,2.91228708 54.9873697,3.04815075 55.1890712,2.66247323 C55.3907727,2.27606526 55.3301161,2.24392547 55.5310868,1.85824794 C55.7342499,1.47037907 55.6977098,1.45138738 55.9001421,1.0635185 C56.1025744,0.675649631 56.4972078,0.690989078 56.2794286,0.311885604 C56.0674959,-0.0562611217 55.8884492,0.18332643 55.4631221,0.18332643 C55.0392567,0.18332643 55.0392567,0.0547672559 54.6146604,0.0547672559 C54.1907949,0.0547672559 54.1907949,0.116125044 53.7654678,0.116125044 C53.3416023,0.116125044 53.3416023,0.255640966 52.9177368,0.255640966 C52.4938713,0.255640966 52.4938713,0.187709129 52.0707367,0.187709129 C51.6461404,0.187709129 51.6461404,0.279015361 51.2222749,0.279015361 C50.7984094,0.279015361 50.7984094,0.124159992 50.3738131,0.124159992 C49.9492168,0.124159992 49.9492168,0.142421238 49.5246206,0.142421238 C49.0992935,0.142421238 49.0992935,0.449940626 48.6732356,0.449940626 C48.2471777,0.449940626 48.2471777,0.256371415 47.8211198,0.256371415 C47.3957927,0.256371415 47.3957927,0.490845818 46.9697348,0.490845818 C46.5451385,0.490845818 46.5451385,0.461627824 46.1198114,0.461627824 C45.6952152,0.461627824 45.6952152,0.343294948 45.2698881,0.343294948 C44.844561,0.343294948 44.844561,0.239571069 44.4199647,0.239571069 C43.9946376,0.239571069 43.9946376,0.13511674 43.5693105,0.13511674 C43.1439834,0.13511674 43.1439834,0.227153421 42.7179255,0.227153421 C42.2918677,0.227153421 42.2918677,0.398078687 41.865079,0.398078687 C41.4397519,0.398078687 41.4397519,0.0869070495 41.013694,0.0869070495 C40.5883669,0.0869070495 40.5883669,0.318459653 40.1630398,0.318459653 C39.7377127,0.318459653 39.7377127,0.104437846 39.3116548,0.104437846 C38.8855969,0.104437846 38.8855969,0.292893908 38.4588082,0.292893908 C38.0327503,0.292893908 38.0327503,0.520794262 37.6066925,0.520794262 C37.1806346,0.520794262 37.1806346,0.287780759 36.7545767,0.287780759 C36.3285188,0.287780759 36.3285188,0.111742344 35.9024609,0.111742344 C35.4756722,0.111742344 35.4756722,0.329416401 35.0488835,0.329416401 C34.6228256,0.329416401 34.6228256,0.368130243 34.1967677,0.368130243 C33.7729022,0.368130243 33.7729022,0.256371415 33.348306,0.256371415 C32.9229789,0.256371415 32.9229789,0.23153612 32.4983826,0.23153612 C32.0715939,0.23153612 32.0715939,0.317729203 31.6440744,0.317729203 C31.2187473,0.317729203 31.2187473,0.108090095 30.7926894,0.108090095 C30.3666315,0.108090095 30.3666315,0.524446511 29.9405736,0.524446511 C29.5130541,0.524446511 29.5130541,0.0562281557 29.0855346,0.0562281557 C28.658746,0.0562281557 28.658746,0.0628022043 28.2319573,0.0628022043 C27.8044378,0.0628022043 27.8044378,0.356443045 27.3776491,0.356443045 C26.9493988,0.356443045 26.9493988,0.0920201985 26.5218793,0.0920201985 C26.0943598,0.0920201985 26.0943598,0.0686458032 25.6675711,0.0686458032 C25.2393208,0.0686458032 25.2393208,0.163604284 24.8118013,0.163604284 C24.3828202,0.163604284 24.3828202,0.374704292 23.9545699,0.374704292 C23.524858,0.374704292 23.2902704,-0.0905922648 23.0717604,0.278284911 C22.8495964,0.650083886 23.2098821,0.721667972 23.410122,1.10515414 C23.6110927,1.49010122 23.5708985,1.51055381 23.7718693,1.89477044 C23.9721092,2.27898706 24.2636994,2.12705349 24.4646701,2.51053966 C24.66491,2.89402583 24.5903681,2.93273968 24.790608,3.3169563 C24.9901171,3.69971202 24.7599143,3.82023625 24.9594234,4.20372242 C25.1596633,4.58647814 25.2992466,4.51416361 25.5002173,4.89691933 C25.6997264,5.28113595 25.5287186,5.37025084 25.7289585,5.75373701 C25.9299292,6.13795363 26.1228611,6.03715155 26.3238318,6.42136818 C26.5248025,6.80631525 26.6519621,6.73911386 26.8529328,7.12406093 C27.0539035,7.50754711 26.9157819,7.57986164 27.1167526,7.96334782 C27.3169925,8.34756444 27.1525619,8.43302707 27.3528018,8.81651324 C27.5530417,9.20072987 27.8197846,9.06194439 28.0200245,9.44616102 C28.2209952,9.83110809 28.1998019,9.84133439 28.4007726,10.2262815 C28.6017434,10.6104981 28.5447408,10.641177 28.7449807,11.0253936 C28.9459514,11.4096102 28.9291429,11.4183756 29.1301136,11.8018618 C29.3310843,12.1868089 29.1483837,12.2817673 29.3486236,12.665984 C29.5503251,13.050931 29.7417953,12.9508594 29.9434968,13.3358065 C30.1437367,13.7185622 30.0940422,13.7448584 30.2942821,14.1283446 C30.494522,14.5111003 30.6816074,14.41322 30.8811165,14.7967062 C31.0813564,15.1794619 30.9768517,15.2349761 31.1763608,15.6184623 C31.3780623,16.0034093 31.2048621,16.0932547 31.4065636,16.4789322 C31.6068035,16.8631488 31.8618536,16.730207 32.0620935,17.1144236 C32.2630642,17.4993706 32.2177544,17.522745 32.4187251,17.9069617 C32.6196958,18.2926392 32.4326104,18.3905195 32.6343119,18.776197 C32.8352826,19.1611441 32.900324,19.1275434 33.1005639,19.5124904 C33.3022654,19.898168 33.292765,19.9032811 33.4937357,20.2889586 C33.6947064,20.6724448 33.5558539,20.7447593 33.7568246,21.1282455 C33.9577953,21.5146535 34.1565736,21.4109296 34.3582751,21.7966071 C34.5599766,22.1837456 34.4430482,22.2443729 34.6447497,22.6315113 C34.847182,23.0186497 35.0481527,22.913465 35.2513158,23.3013338 C35.4530173,23.6892027 35.4581329,23.6972377 35.4581329,24.1340467 C35.4588637,24.5708557 35.1446186,24.4174612 34.9421863,24.8053301 C34.739754,25.1917381 34.8537592,25.2509045 34.6513269,25.6380429 C34.4496254,26.0251813 34.721484,26.1668886 34.5197825,26.554027 C34.3166193,26.9418959 34.0564536,26.8053018 33.8532905,27.1931706 C33.6523198,27.5795786 33.7334389,27.6219447 33.5324682,28.0076222 C33.3314975,28.3932998 33.3081118,28.3816126 33.1071411,28.7672901 C32.9061704,29.1536981 32.7548943,29.0748095 32.5539236,29.4612174 C32.3514913,29.8490863 32.7168926,30.0397337 32.5144602,30.4276026 C32.3120279,30.814741 32.1534438,30.7322002 31.9517423,31.1193386 C31.7500408,31.506477 31.541762,31.3983705 31.3400605,31.7855089 C31.1376282,32.1741082 31.4211796,32.3223895 31.2187473,32.7102584 C31.0170458,33.0981273 30.9834289,33.0805965 30.7802658,33.4684653 C30.5778335,33.8570647 30.4492122,33.7898633 30.2467799,34.1777321 C30.0443476,34.5641401 29.8974563,34.4881733 29.6964856,34.8745813 C29.4933225,35.2631806 29.5415554,35.2887464 29.3383923,35.6766152 C29.1352292,36.0666755 29.0928427,36.0440315 28.8889488,36.4333613 C28.6850548,36.8234215 28.7617891,36.8628658 28.5578952,37.2536565 C28.3540013,37.6437167 28.7047865,38.2945475 28.2648434,38.3084261 C27.8395163,38.3230351 28.1574154,37.6627084 27.9600987,37.2857963 C27.762782,36.9081537 27.7298959,36.924954 27.53331,36.5473115 C27.3359933,36.1689384 27.4010348,36.1353377 27.2044489,35.7569647 C27.007863,35.382244 26.9771693,35.3983138 26.7813142,35.0228626 C26.5847283,34.6474114 26.6519621,34.6123498 26.4553762,34.2368986 C26.2595212,33.8614474 25.9123899,34.0425989 25.7165349,33.6664172 C25.519949,33.2902356 25.5024097,33.2997314 25.3058238,32.9235497 C25.1092379,32.5466376 25.2590525,32.4692099 25.0617358,32.0922978 C24.8651499,31.7153857 24.8081473,31.7446037 24.6115614,31.3676916 C24.4142447,30.9893185 24.5209419,30.9338043 24.3228944,30.5561618 C24.1263085,30.1785192 24.1913499,30.1441881 23.9940332,29.7665455 C23.7974473,29.3889029 23.8676044,29.35165 23.6710185,28.9740074 C23.4744326,28.5970953 23.3260797,28.6745229 23.1302246,28.2968804 C22.9329079,27.9206987 22.8028251,27.9886305 22.6062392,27.6117184 C22.4096533,27.2348063 22.5645834,27.1537264 22.3679975,26.7775447 C22.1714117,26.401363 22.0457136,26.4671035 21.8498585,26.0901914 C21.6525418,25.7132792 21.9141692,25.5774156 21.7175833,25.2005034 C21.5202666,24.8235913 21.470572,24.8498875 21.2739861,24.4729754 C21.0766694,24.0953328 21.0927471,24.0872979 20.8961612,23.7096553 C20.6988445,23.3320127 20.7061525,23.32763 20.5095666,22.9499875 C20.3115191,22.5716144 20.3845994,22.5329006 20.1865519,22.1545276 C19.989966,21.776885 19.7926493,21.879148 19.5960634,21.5015054 C19.3980159,21.1238628 19.5580617,21.0405915 19.360745,20.662949 C19.1641591,20.2853064 18.8776845,20.4350486 18.6810986,20.057406 C18.4837819,19.6797635 18.5495542,19.6454323 18.3522375,19.2685202 C18.1549208,18.8901472 18.0189915,18.9617313 17.8224056,18.5840887 C17.6243581,18.2049852 17.7259397,18.1523928 17.5293538,17.7740198 C17.3313063,17.3956468 17.5147378,17.2999578 17.3166903,16.9208544 C17.1193736,16.5432118 17.2260707,16.4869672 17.0294849,16.1085941 C16.8314374,15.7309516 16.7247402,15.7864657 16.5274235,15.4088232 C16.3308376,15.0304501 16.3688393,15.010728 16.1707919,14.6330854 C15.9734752,14.253982 15.925973,14.2788172 15.7286563,13.8997138 C15.5306088,13.5213407 15.4429125,13.5673591 15.2455958,13.1882556 C15.0475483,12.810613 15.2083249,12.7266113 15.0110082,12.3482383 C14.8136915,11.9698653 14.4555983,12.15613 14.2582816,11.7777569 C14.0602341,11.3986535 14.2100486,11.3204953 14.0120011,10.9421223 C13.8146844,10.5644797 13.8278389,10.5579057 13.6305222,10.1802631 C13.4339363,9.803351 13.6853324,9.67187002 13.4887465,9.2949579 C13.2914298,8.91731532 13.2453892,8.94068972 13.0488033,8.56377759 C12.8507558,8.18394367 12.8310242,8.19416997 12.6322459,7.8150665 C12.43566,7.43669347 12.4729309,7.41697133 12.2748834,7.0385983 C12.0775667,6.66022528 12.0454114,6.67702562 11.8473639,6.2986526 C11.6493164,5.91881868 11.6127763,5.93781037 11.413998,5.5587069 C11.2166813,5.17887298 11.2707607,5.15038543 11.073444,4.77128196 C10.8746657,4.39144803 10.7226588,4.47106707 10.5253421,4.09123314 C10.3272946,3.71359057 10.3908744,3.68072033 10.1928269,3.3023473 C9.99477945,2.92251338 9.77115386,3.03938536 9.57310637,2.65882098 C9.37359727,2.27825661 9.65495626,2.13216664 9.45617796,1.75160226 C9.25666886,1.36957699 9.0381589,1.48352717 8.8393806,1.1015019 C8.63987151,0.720207072 8.91173006,0.491576268 8.54632878,0.263675914 C8.19627435,0.0452714079 8.11588607,0.43021848 7.70225183,0.43021848 C7.28861758,0.43021848 7.28861758,0.192822278 6.87498333,0.192822278 C6.46061828,0.192822278 6.46061828,0.138038539 6.04552243,0.138038539 C5.63115738,0.138038539 5.63115738,0.443366578 5.21752313,0.443366578 C4.80242728,0.443366578 4.80242728,0.286319859 4.38806223,0.286319859 C3.97296638,0.286319859 3.97296638,0.306042005 3.55713972,0.306042005 C3.14277467,0.306042005 3.14277467,0.0949419979 2.72840962,0.0949419979 C2.31258297,0.0949419979 2.31258297,0.202318126 1.89821792,0.202318126 C1.48166046,0.202318126 1.48166046,0.0964028976 1.065103,0.0964028976 C0.648545545,0.0964028976 0.260489388,-0.172402648 0.0514798564,0.187709129 C-0.16191449,0.557316755 0.344531682,0.715093923 0.541848372,1.09346695 C0.739165063,1.47183997 0.893364402,1.39149049 1.08995029,1.76986351 C1.28799778,2.14750609 1.36838606,2.10513999 1.56643356,2.48351302 C1.76301944,2.86115559 1.65047585,2.91959158 1.84779254,3.2979646 C2.04437843,3.67487673 2.00199188,3.69752067 2.19930857,4.07516325 C2.39589446,4.45207537 2.43024218,4.43454458 2.62755887,4.81218715 C2.82414476,5.18982972 3.00246058,5.09706259 3.19904647,5.47470517 C3.39636316,5.85161729 3.37078507,5.86476539 3.56810176,6.24240796 C3.76541845,6.62005054 3.73545555,6.63538998 3.93204143,7.01303256 C4.12935812,7.39067513 4.16078263,7.37387478 4.35736852,7.75151736 C4.55468521,8.12989038 4.30548154,8.25918001 4.50206743,8.63682258 C4.69938412,9.01446515 4.81777413,8.95310737 5.01436002,9.33148039 C5.21240751,9.70912296 5.04943854,9.79385515 5.24675523,10.1722282 C5.44407192,10.5506012 5.55369231,10.4936261 5.751009,10.8719991 C5.94832569,11.2503722 5.77220227,11.3416784 5.96951896,11.7207819 C6.16683565,12.0984244 6.51104366,11.9194642 6.70836035,12.2971068 C6.90494624,12.6754798 6.87059852,12.6937411 7.06791521,13.0713836 C7.2652319,13.4490262 7.14245707,13.5133058 7.33904295,13.8909484 C7.53635965,14.2685909 7.65255725,14.2079636 7.84914314,14.5856062 C8.04645983,14.9639792 8.11150126,14.9303785 8.30808715,15.3080211 C8.50540384,15.6856637 8.21819843,15.8354059 8.41551512,16.2130485 C8.61210101,16.5914215 8.77653158,16.5059588 8.97311747,16.8836014 C9.17116497,17.2619744 8.95850142,17.3730028 9.15581811,17.7513758 C9.3531348,18.1297489 9.70026602,17.9493278 9.8968519,18.3277008 C10.0934378,18.7038825 9.96700895,18.7696229 10.162864,19.1458046 C10.3587191,19.5212558 10.3631039,19.5197949 10.558959,19.8952462 C10.7555449,20.2721583 10.6963499,20.3028372 10.892205,20.6797493 C11.0887909,21.055931 11.180872,21.0084517 11.3774579,21.3853639 C11.5740438,21.762276 11.5937754,21.7520497 11.7910921,22.1289618 C11.987678,22.5073348 11.747244,22.6322418 11.9445607,23.0098843 C12.1418774,23.3889878 12.3830422,23.2633504 12.5796281,23.6417235 C12.7776756,24.0200965 12.5825513,24.1223595 12.779868,24.5007325 C12.9771847,24.8783751 12.9494142,24.8929841 13.1467309,25.2713571 C13.3440476,25.6489997 13.3213927,25.6606869 13.5179786,26.0383294 C13.7152953,26.4152416 13.8578018,26.3407357 14.0551185,26.7183782 C14.2517043,27.0952904 14.2655896,27.0887163 14.4614447,27.4656284 C14.6587614,27.8425406 14.489946,27.9301945 14.6872627,28.3078371 C14.8838486,28.6847492 14.8195379,28.7183499 15.0168546,29.0952621 C15.2141713,29.4729046 15.2624043,29.4473389 15.4589902,29.8249815 C15.6563069,30.202624 15.6387676,30.2121199 15.8353535,30.5904929 C16.033401,30.9688659 16.2606806,30.8498026 16.4587281,31.2289061 C16.6560448,31.6080096 16.5047686,31.6868981 16.7028161,32.0660016 C16.9001328,32.4443746 17.1025651,32.3391899 17.2998818,32.7175629 C17.4971985,33.0959359 17.3466532,33.174094 17.5439699,33.5524671 C17.7412866,33.9301096 17.921064,33.8366121 18.1176499,34.2149851 C18.3149666,34.5933581 18.0094911,34.7525962 18.206077,35.1302388 C18.4033937,35.5086118 18.6562514,35.3771308 18.853568,35.7555038 C19.0516155,36.1338768 19.0545387,36.1324159 19.2525862,36.5115194 C19.4499029,36.8906229 19.1597743,37.0425565 19.357091,37.4216599 C19.5551385,37.800033 19.8876537,37.6269163 20.0849704,38.0052894 C20.282287,38.3843928 20.1215105,38.4676641 20.3188272,38.8467676 C20.5161439,39.2251406 20.4708341,39.2492455 20.66742,39.6283489 C20.8661983,40.0074524 20.841351,40.0198701 21.0386677,40.399704 C21.2367152,40.7788075 21.5304978,40.625413 21.7285453,41.0052469 C21.925862,41.3836199 21.6540034,41.5253272 21.8513201,41.9044307 C22.0493676,42.2835342 22.3139182,42.1454791 22.5126964,42.5245826 C22.7100131,42.9044165 22.7231676,42.8978425 22.9204843,43.2776764 C23.117801,43.655319 22.9358311,43.7502775 23.132417,44.1286505 C23.3297337,44.5062931 23.3969675,44.4712315 23.5935534,44.848874 C23.7908701,45.2272471 23.8712584,45.1856114 24.0685751,45.5639845 C24.2666226,45.9438184 24.0283809,46.0679949 24.2264284,46.4478288 C24.4237451,46.8269322 24.4668625,46.8050188 24.6641792,47.1833918 C24.8622267,47.5624953 24.7949928,47.5975568 24.9923095,47.9766603 C25.1910878,48.3572247 25.3153243,48.2929451 25.5133717,48.672779 C25.7114192,49.052613 25.7391897,49.038004 25.9372372,49.4178379 C26.1360155,49.7984023 26.1732865,49.7794106 26.3713339,50.1592445 C26.5693814,50.538348 26.3727956,50.6398805 26.570843,51.018984 C26.7688905,51.3995483 26.7009259,51.4346099 26.8997042,51.8159047 C27.0984825,52.1964691 27.2672979,52.1088151 27.4653454,52.49011 C27.6655853,52.8721352 27.5303868,52.9429889 27.7298959,53.3250141 C27.9286742,53.7077699 27.8263618,53.9948367 28.2582661,53.9999498 C28.6835932,54.005063 28.4044267,53.618655 28.6017434,53.2410124 C28.7983292,52.8648307 29.0109928,52.9758591 29.2083095,52.598947 C29.4048954,52.2220349 29.2843129,52.1592162 29.4808988,51.7823041 C29.6782155,51.4061224 29.7966055,51.4682106 29.9931914,51.090568 C30.1897773,50.7136559 29.8448385,50.5339653 30.0421552,50.1570531 C30.2387411,49.7794106 30.4974452,49.9138133 30.6940311,49.5369012 C30.8913478,49.1585282 30.686723,49.0518825 30.8847705,48.6735095 C31.0813564,48.2965974 31.3890243,48.4572963 31.586341,48.0796537 C31.7829269,47.7020112 31.7098466,47.6640278 31.9064325,47.2863852 C32.1037492,46.9094731 31.8055818,46.7538873 32.0021676,46.3762447 C32.1994843,45.9986021 32.4713429,46.1395789 32.6679288,45.7619364 C32.8659763,45.3842938 32.7863188,45.3426581 32.9843663,44.9650156 C33.1809522,44.587373 33.1517201,44.5720336 33.3490368,44.194391 C33.5463535,43.8167484 33.3768073,43.7276335 33.5741239,43.3499909 C33.7714406,42.9716179 33.9453716,43.0629242 34.1434191,42.6845511 C34.340005,42.3083695 34.4262397,42.3529269 34.6228256,41.9760148 C34.8194115,41.5998331 34.8237963,41.6020244 35.0203822,41.2258428 C35.2169681,40.8489307 35.0035738,40.7371718 35.2001596,40.3602597 C35.3982071,39.9818867 35.5304824,40.0512794 35.7285299,39.6721759 C35.9251158,39.2945334 35.7519156,39.2039576 35.9492323,38.826315 C36.146549,38.4486724 36.4330236,38.5976842 36.6303402,38.2200416 C36.8283877,37.8409382 36.5272971,37.6838914 36.7253446,37.304788 C36.9233921,36.9264149 37.0176656,36.9760855 37.2149823,36.5977125 C37.4130298,36.218609 37.3399495,36.1806256 37.537997,35.8015222 C37.7353137,35.42461 37.8851282,35.5027682 38.0824449,35.1258561 C38.2804924,34.7460221 38.393036,34.8051886 38.5918143,34.4260851 C38.7898618,34.0462512 38.6831646,33.9900065 38.8812121,33.6101726 C39.0807212,33.2296082 39.1457626,33.2632089 39.3438101,32.8819141 C39.5433192,32.5013497 39.4746238,32.4867407 39.577667,32.0689234 C39.603245,31.9681213 39.5184719,32.0090265 39.5199336,32.0068352 M70.9912149,0.472584572 C70.6287368,0.696102227 70.527886,0.588726099 70.3305694,0.966368673 C70.1339835,1.34401125 70.2779516,1.41924758 70.0806349,1.79689016 C69.8833182,2.17526318 69.946898,2.20813342 69.7495813,2.585776 C69.5537262,2.96122722 69.3454475,2.85239019 69.1495924,3.22784142 C68.9537373,3.60329264 69.084551,3.67195493 68.8886959,4.04740615 C68.69211,4.42358783 68.7081877,4.43162278 68.5116018,4.807074 C68.3157467,5.18325567 68.2689753,5.15915083 68.0731203,5.5353325 C67.8765344,5.91224463 68.0175793,5.98528961 67.8209934,6.36220174 C67.6236767,6.73984431 67.6931029,6.77563635 67.496517,7.15254848 C67.2992004,7.5309215 67.0843444,7.41843222 66.8870277,7.7960748 C66.689711,8.17444782 66.8278327,8.24676236 66.630516,8.62440493 C66.4324685,9.00204751 66.234421,8.89832363 66.0363735,9.27523575 C65.8405184,9.65287833 66.1620716,9.82015134 65.9654857,10.1977939 C65.768169,10.5739756 65.7265132,10.5520621 65.5299274,10.9289742 C65.3333415,11.3051559 65.1893734,11.23065 64.9927875,11.6068317 C64.7962016,11.9830134 64.9672094,12.0721282 64.7698927,12.4490404 C64.5740376,12.825222 64.2298296,12.6462618 64.0332437,13.0231739 C63.8366578,13.3993556 63.9111997,13.4387999 63.7146138,13.815712 C63.5172971,14.1933546 63.6071858,14.2401034 63.4113307,14.6170155 C63.2132833,14.9953886 63.2213221,14.9997713 63.0240054,15.3774138 C62.8266887,15.7557868 62.7061063,15.6936986 62.5080588,16.0720716 C62.3114729,16.4497142 62.4006308,16.496463 62.2025833,16.8741056 C62.0059974,17.2517481 61.8605677,17.1757814 61.663251,17.5534239 C61.4666651,17.9310665 61.4381638,17.9164575 61.2408472,18.2933696 C61.0435305,18.6710122 61.096879,18.6987693 60.8995624,19.0756814 C60.7029765,19.453324 60.9960283,19.6067185 60.7994424,19.984361 C60.6013949,20.3627341 60.6467047,20.3861085 60.449388,20.7644815 C60.2513405,21.1428545 60.0255225,21.0252521 59.827475,21.4043556 C59.6301583,21.7819981 59.6557364,21.7951462 59.4584197,22.1735193 C59.261103,22.5511618 59.2274861,22.5343615 59.0309002,22.9120041 C58.8328527,23.2896466 58.8248139,23.2859944 58.628228,23.6643674 C58.4301805,24.0427404 58.3709855,24.0120615 58.1736688,24.3904346 C57.9756213,24.769538 58.1115506,24.8403917 57.9135031,25.2187647 C57.7169172,25.5971377 57.6796463,25.578146 57.4815988,25.9557886 C57.2850129,26.3348921 57.4742908,26.4335028 57.2762433,26.8126063 C57.0789266,27.1909793 56.9649214,27.1318129 56.7676047,27.5109163 C56.570288,27.8885589 56.5564028,27.8812544 56.3590861,28.258897 C56.1625002,28.6358091 56.2735822,28.6935146 56.0769963,29.0704268 C55.8796796,29.4480693 55.6195139,29.3122057 55.4221972,29.6898482 C55.2248805,30.0696822 55.2855371,30.1010915 55.0867588,30.480195 C54.8901729,30.8592985 54.9252515,30.8782902 54.7286656,31.2566632 C54.5306181,31.6350362 54.556927,31.6489148 54.3596103,32.0272878 C54.1615628,32.4071217 54.0300183,32.3384594 53.8319708,32.7182933 C53.6339233,33.0973968 53.5199181,33.0382304 53.3218706,33.4173338 C53.1238232,33.7964373 53.1786333,33.8249249 52.979855,34.2047588 C52.7832692,34.5831318 52.9067748,34.6474114 52.7087273,35.025054 C52.5114106,35.4056183 52.450754,35.3734786 52.2519757,35.7540429 C52.0531974,36.1346073 52.1343165,36.1769734 51.936269,36.5575378 C51.7367599,36.9388326 51.6000998,36.867979 51.3998599,37.2492738 C51.2010816,37.631299 51.5759833,37.9264008 51.1462714,37.9410098 C50.7304448,37.9556188 50.8188719,37.7949198 50.6266708,37.4267731 C50.4337389,37.0571655 50.6047467,36.9673201 50.4118149,36.5969821 C50.218883,36.2281049 50.0113351,36.3362115 49.8184032,35.9666038 C49.6254713,35.5977267 49.6517802,35.5838481 49.4588483,35.2149709 C49.2651857,34.8446329 49.3696904,34.7905796 49.1760277,34.419511 C48.9838267,34.0499034 49.0759078,34.0016937 48.8822451,33.6320861 C48.6893132,33.261748 48.7813944,33.2135383 48.5884625,32.8432003 C48.3955306,32.4743231 48.3144115,32.5166892 48.1214796,32.147812 C47.927817,31.7774739 47.7765408,31.8563625 47.583609,31.485294 C47.3892155,31.1142255 47.6654589,30.9703268 47.4710654,30.5992583 C47.2774027,30.2267289 47.0713164,30.3333746 46.8776537,29.9615756 C46.6825294,29.5890462 46.9193094,28.9922686 46.4998288,29.0178344 C46.0533084,29.044861 46.3047045,29.6021943 46.0964258,29.9988285 C45.8896086,30.3954628 46.0920409,30.501378 45.8837622,30.8980123 C45.6762143,31.2961075 45.4693972,31.1880009 45.2611184,31.5860961 C45.0535705,31.9834608 44.8986404,31.9023809 44.6910924,32.2997456 C44.4820829,32.6978407 44.6750148,32.7986428 44.4674669,33.196738 C44.2606497,33.5926418 44.2949975,33.6109031 44.0867187,34.0075373 C43.8791708,34.4056325 43.7797817,34.3537706 43.5715029,34.7525962 C43.3632242,35.1514218 43.3405693,35.1397346 43.1322906,35.5385602 C42.9232811,35.9388467 42.9992845,35.9790215 42.790275,36.3785776 C42.5812655,36.7788641 42.1712852,36.713854 42.1654388,37.165272 C42.161054,37.5962375 42.7559273,37.4421125 42.9554364,37.8248683 C43.1549455,38.2068935 42.7398496,38.4238371 42.9386279,38.8058624 C43.138137,39.1878877 43.1439834,39.1849659 43.3434925,39.5669912 C43.5430016,39.9497469 43.8046289,39.8138832 44.004138,40.1966389 C44.2036471,40.5793947 43.9690595,40.7021102 44.1692994,41.084866 C44.3688085,41.4668912 44.348346,41.477848 44.5478551,41.8598732 C44.748095,42.242629 44.8321373,42.198802 45.0316464,42.5815577 C45.2318863,42.9650439 45.4189718,42.8671636 45.6192117,43.2506498 C45.81799,43.6319446 45.7200624,43.6830761 45.9195715,44.0643709 C46.1183498,44.4456657 46.0576932,44.4778055 46.2557407,44.8591003 C46.4559806,45.2403952 46.4157865,45.2615782 46.6145648,45.642873 C46.8155355,46.0263592 47.1071257,45.8744256 47.3073656,46.2579118 C47.5068747,46.6406675 47.431602,46.6793814 47.6318419,47.0621371 C47.831351,47.4448928 47.6011482,47.5654171 47.8006573,47.9474423 C48.001628,48.3316589 48.1404805,48.258614 48.3414512,48.6428306 C48.5416911,49.0255863 48.3699525,49.1154316 48.5701924,49.4989178 C48.7711631,49.882404 48.964095,49.7816019 49.1650657,50.1650881 C49.3645748,50.5471134 49.4917344,50.4806424 49.6912435,50.8626677 C49.8922142,51.2468843 49.7540926,51.3191988 49.9550633,51.702685 C50.156034,52.0876321 49.9916034,52.1738252 50.1925741,52.5580418 C50.3935448,52.9444498 50.6595569,52.8056643 50.8619892,53.1913418 C51.0629599,53.5770193 50.7180211,53.909374 51.1528487,53.917409 C51.5796373,53.9254439 51.3128944,53.625229 51.5109419,53.2475865 C51.7075278,52.8692134 51.7243363,52.8772484 51.9209221,52.4996058 C52.1189696,52.1212328 52.3009395,52.2169217 52.4982562,51.8385487 C52.6955729,51.4609061 52.502641,51.360104 52.6992269,50.9824615 C52.8965436,50.6048189 52.9455073,50.6311151 53.1435548,50.2534725 C53.3394099,49.8750995 53.1530553,49.7779497 53.3496411,49.4003071 C53.5469578,49.0226645 53.6514626,49.0774482 53.8487793,48.7005361 C54.0453652,48.3221631 54.2185654,48.4127389 54.4151513,48.0350963 C54.612468,47.6574537 54.3574179,47.5252423 54.5547346,47.1475997 C54.7513204,46.7692267 54.797361,46.7933316 54.9939469,46.415689 C55.1912636,46.0380464 55.378349,46.1351962 55.5749349,45.7575537 C55.7722516,45.3799111 55.7072102,45.3463104 55.9045269,44.9686678 C56.1018436,44.5902948 56.111344,44.5954079 56.3086607,44.2170349 C56.5059774,43.8386619 56.6440991,43.9109764 56.8414158,43.5326034 C57.0394633,43.1542304 56.840685,43.0505065 57.0380016,42.6721335 C57.2353183,42.2944909 57.3522467,42.3551182 57.5488326,41.9767452 C57.7468801,41.5991027 57.5451786,41.4939179 57.7424953,41.1162753 C57.9390812,40.7386327 58.1268975,40.8357826 58.3242141,40.45814 C58.5208,40.0804974 58.6428441,40.1440465 58.8401608,39.766404 C59.0367466,39.3880309 58.9234722,39.3288645 59.1207889,38.9512219 C59.3173748,38.5735794 59.0455163,38.4318721 59.242833,38.0534991 C59.4394189,37.6758565 59.7010462,37.8117202 59.8976321,37.4340776 C60.0956795,37.0557046 60.0130989,37.0133385 60.2111464,36.634235 C60.4077322,36.255862 60.4311179,36.2675492 60.6277038,35.8891761 C60.8242897,35.5129945 60.974835,35.5918831 61.1706901,35.2157014 C61.3665452,34.8395197 61.0011439,34.6488723 61.196999,34.2726906 C61.3935849,33.8965089 61.552169,33.9790498 61.7480241,33.6028681 C61.9453408,33.225956 62.1521579,33.3340626 62.3494746,32.9571504 C62.5453297,32.5802383 62.2610475,32.431957 62.4576334,32.0543144 C62.6556809,31.6766718 62.6878362,31.6934722 62.8851529,31.3158296 C63.0832004,30.9374566 63.2110908,31.004658 63.4091383,30.626285 C63.6057242,30.2471815 63.7526155,30.3238787 63.950663,29.9455057 C64.1479797,29.5671327 64.0997468,29.5422974 64.2970634,29.1639244 C64.4936493,28.7862818 64.5367667,28.8089257 64.7333526,28.4312831 C64.9306693,28.0536406 64.853935,28.0141963 65.0512517,27.6365537 C65.2471068,27.2596416 64.9460161,27.1025949 65.142602,26.7256827 C65.3391879,26.3480402 65.6300473,26.4992433 65.8259024,26.1223312 C66.0232191,25.7446886 65.990333,25.7278882 66.1876497,25.3509761 C66.3842355,24.9733335 66.449277,25.0069342 66.6458629,24.6292917 C66.8431796,24.2516491 66.8124858,24.2355792 67.0098025,23.8572062 C67.2071192,23.4788331 67.2736223,23.5138947 67.4702081,23.1355217 C67.6689864,22.7556878 67.3211244,22.5745362 67.5191719,22.1954328 C67.7164886,21.8170597 67.6989493,21.8075639 67.896266,21.4291909 C68.0935827,21.0508178 68.2433973,21.128976 68.4407139,20.7506029 C68.6372998,20.3729604 68.581028,20.3430119 68.7776139,19.9653694 C68.9756614,19.5877268 69.0816278,19.6425105 69.2789445,19.2648679 C69.4762612,18.8864949 69.5413026,18.9200956 69.7386193,18.5417226 C69.935936,18.1626191 70.0075546,18.1998721 70.2056021,17.821499 C70.4029188,17.4416651 70.2552967,17.3649679 70.4526134,16.9858644 C70.6506609,16.6067609 70.5198472,16.5388291 70.7178947,16.1604561 C70.9152114,15.7813526 71.0701415,15.8624325 71.268189,15.4840595 C71.4647749,15.104956 71.3390769,15.039946 71.5371244,14.6608425 C71.7344411,14.281739 71.9960684,14.4176027 72.1941159,14.0384992 C72.3921634,13.6593958 72.341738,13.6330996 72.5397855,13.2539961 C72.7371022,12.8748926 72.7539106,12.883658 72.9512273,12.5045546 C73.1492748,12.1254511 73.1565828,12.1291033 73.3538995,11.7499999 C73.5526778,11.3708964 73.6250273,11.4081493 73.8238056,11.0290458 C74.0203915,10.6506728 73.8238056,10.5484098 74.0203915,10.1700368 C74.2177082,9.79239425 74.3777539,9.87566553 74.5743398,9.49802296 C74.7716565,9.11964993 74.4851819,8.97063816 74.6832294,8.59226514 C74.8805461,8.21243122 74.9463183,8.24676236 75.1443658,7.86692843 C75.3424133,7.48782496 75.206484,7.41697133 75.4045315,7.03786785 C75.6018482,6.65876438 75.7034298,6.71135677 75.9014772,6.33225329 C76.0995247,5.95241937 76.2829562,6.04737785 76.4810037,5.66681348 C76.679782,5.28771 76.7864791,5.34322419 76.9852574,4.96412072 C77.1833049,4.58355635 77.0766078,4.52731171 77.2739245,4.14747778 C77.4719719,3.76837431 77.5107045,3.7888269 77.7072904,3.40972343 C77.9067995,3.02915906 77.8585665,3.00432376 78.0573448,2.62375939 C78.2561231,2.24246457 78.1684268,2.19644623 78.3679359,1.81588185 C78.5667142,1.43312613 78.7274907,1.51712786 78.926269,1.13437214 C79.1265089,0.752346866 79.1820499,0.783025759 78.9715788,0.407574535 C78.7691465,0.0467323076 78.7633001,0.359364845 78.3496658,0.359364845 C77.9367624,0.359364845 77.9367624,0.345486297 77.5223973,0.345486297 C77.1080323,0.345486297 77.1080323,0.0613413046 76.6936672,0.0613413046 C76.2785714,0.0613413046 76.2785714,0.113203244 75.8649371,0.113203244 C75.4498413,0.113203244 75.4498413,0.13584719 75.0354762,0.13584719 C74.6203804,0.13584719 74.6203804,0.0934810982 74.2045537,0.0934810982 C73.7909195,0.0934810982 73.7909195,0.130003591 73.3758236,0.130003591 C72.9607278,0.130003591 72.9607278,0.171639232 72.5456319,0.171639232 C72.1290745,0.171639232 72.1341901,0.123429542 71.7183634,0.110281445 C71.3405385,0.0978637973 71.3456541,0.254180066 70.9912149,0.472584572" id="Fill-1"></path>
            </g>
        </g>
    </g>
</svg>