<?xml version="1.0" encoding="UTF-8" standalone="no"?>
<svg width="18px" height="14px" viewBox="0 0 18 14" version="1.1" xmlns="http://www.w3.org/2000/svg" xmlns:xlink="http://www.w3.org/1999/xlink">
    <!-- Generator: Sketch 41 (35326) - http://www.bohemiancoding.com/sketch -->
    <title>icon-twitter</title>
    <desc>Created with Sketch.</desc>
    <defs></defs>
    <g id="Page-1" stroke="none" stroke-width="1" fill="none" fill-rule="evenodd">
        <g id="Desktop-HD-Copy" transform="translate(-1332.000000, -43.000000)" fill="#EFF09C">
            <path d="M1349.70175,44.6563191 C1349.06514,44.9397232 1348.3844,45.1286551 1347.67214,45.2105248 C1348.40331,44.7759776 1348.96429,44.0832189 1349.22901,43.2582116 C1348.54198,43.661268 1347.7856,43.9572622 1346.97881,44.1147096 C1346.33588,43.428249 1345.41563,43 1344.40083,43 C1342.44686,43 1340.86478,44.5807476 1340.86478,46.5330608 C1340.86478,46.8101668 1340.89629,47.0809747 1340.95932,47.33918 C1338.01577,47.1880369 1335.41258,45.783625 1333.66661,43.6486717 C1333.36406,44.171393 1333.18758,44.7759776 1333.18758,45.4246493 C1333.18758,46.6527194 1333.81159,47.7296464 1334.76336,48.3657218 C1334.18347,48.3468273 1333.6414,48.1893862 1333.16237,47.9248764 L1333.16237,47.9689635 C1333.16237,49.6819596 1334.37887,51.1052635 1335.99877,51.4327484 C1335.70252,51.51462 1335.38737,51.5587045 1335.06591,51.5587045 C1334.83899,51.5587045 1334.61839,51.5335138 1334.39778,51.4957268 C1334.8453,52.9001356 1336.15635,53.920378 1337.70061,53.9518668 C1336.49041,54.8965365 1334.96506,55.4633379 1333.30734,55.4633379 C1333.0237,55.4633379 1332.74006,55.4444447 1332.46272,55.4129559 C1334.02589,56.4143051 1335.88531,57 1337.8834,57 C1344.38822,57 1347.94318,51.6153841 1347.94318,46.9487198 C1347.94318,46.7975705 1347.93688,46.6401231 1347.93057,46.48898 C1348.63022,45.9851532 1349.22901,45.3616741 1349.70175,44.6563191 Z" id="icon-twitter"></path>
        </g>
    </g>
</svg>